<?xml version="1.0" encoding="UTF-8" standalone="no"?>
<!-- Created with Inkscape (http://www.inkscape.org/) -->

<svg
   xmlns:dc="http://purl.org/dc/elements/1.1/"
   xmlns:cc="http://creativecommons.org/ns#"
   xmlns:rdf="http://www.w3.org/1999/02/22-rdf-syntax-ns#"
   xmlns:svg="http://www.w3.org/2000/svg"
   xmlns="http://www.w3.org/2000/svg"
   xmlns:sodipodi="http://sodipodi.sourceforge.net/DTD/sodipodi-0.dtd"
   xmlns:inkscape="http://www.inkscape.org/namespaces/inkscape"
   width="100mm"
   height="100mm"
   viewBox="0 0 100 100"
   version="1.1"
   id="svg875"
   inkscape:version="0.92.3 (2405546, 2018-03-11)"
   sodipodi:docname="icon.svg"
   inkscape:export-filename="/var/www/html/projeto_negociolocal/essets/img/svg/icon.png"
   inkscape:export-xdpi="96"
   inkscape:export-ydpi="96">
  <defs
     id="defs869" />
  <sodipodi:namedview
     id="base"
     pagecolor="#ffffff"
     bordercolor="#666666"
     borderopacity="1.0"
     inkscape:pageopacity="0.0"
     inkscape:pageshadow="2"
     inkscape:zoom="0.98994949"
     inkscape:cx="187.44577"
     inkscape:cy="190.17226"
     inkscape:document-units="mm"
     inkscape:current-layer="layer1"
     showgrid="false"
     inkscape:window-width="1366"
     inkscape:window-height="707"
     inkscape:window-x="0"
     inkscape:window-y="0"
     inkscape:window-maximized="1" />
  <metadata
     id="metadata872">
    <rdf:RDF>
      <cc:Work
         rdf:about="">
        <dc:format>image/svg+xml</dc:format>
        <dc:type
           rdf:resource="http://purl.org/dc/dcmitype/StillImage" />
        <dc:title />
      </cc:Work>
    </rdf:RDF>
  </metadata>
  <g
     inkscape:label="Camada 1"
     inkscape:groupmode="layer"
     id="layer1"
     transform="translate(0,-197)">
    <g
       id="g836"
       inkscape:export-xdpi="96"
       inkscape:export-ydpi="96">
      <rect
         y="197.30847"
         x="0.26726952"
         height="99.156998"
         width="99.424263"
         id="rect827"
         style="fill:#f2f2f2;fill-opacity:0.99557525;stroke:none;stroke-width:0.238125;stroke-miterlimit:4;stroke-dasharray:none;stroke-opacity:1" />
      <g
         transform="matrix(1.764058,0,0,1.764058,-5.3269736,-204.6593)"
         id="g1058">
        <path
           style="fill:none;fill-opacity:1;stroke:#e51b23;stroke-width:2.04264402;stroke-opacity:1"
           d="m 53.023083,245.29347 v 26.66391 c 0,5.36526 -4.409919,9.68458 -9.887717,9.68458 H 19.867415 c -5.4778,0 -9.8877243,-4.31932 -9.8877243,-9.68458 v -26.66391 c 43.0433923,0 0,0 43.0433923,0 z"
           id="rect114"
           inkscape:connector-curvature="0"
           sodipodi:nodetypes="csssscc" />
        <path
           style="fill:none;fill-opacity:1;stroke:#e51b23;stroke-width:1.8377527;stroke-opacity:1"
           d="m 31.337447,253.33781 c 3.405129,0 6.146432,2.84839 6.146432,6.3866 0.475589,5.13719 -3.674869,6.00121 -6.146432,11.35408 -2.74112,-5.36117 -6.146415,-5.62182 -6.146415,-11.35408 0,-3.53821 2.741302,-6.3866 6.146415,-6.3866 z"
           id="rect923"
           inkscape:connector-curvature="0"
           sodipodi:nodetypes="scccs" />
        <ellipse
           style="fill:none;fill-opacity:1;stroke:#e51b23;stroke-width:1.58607697;stroke-opacity:1"
           id="path926"
           cx="31.153877"
           cy="260.2193"
           rx="2.6808197"
           ry="2.6257412" />
        <path
           style="fill:none;fill-opacity:1;stroke:#e51b23;stroke-width:1.92689204;stroke-opacity:1"
           d="m 27.155143,230.13958 c 4.101512,0 7.40346,2.89669 7.40346,6.49479 v 8.35848 c -14.80692,0 0,0 -14.80692,0 v -8.35848 c 0,-3.5981 3.30194,-6.49479 7.40346,-6.49479 z"
           id="rect928"
           inkscape:connector-curvature="0"
           sodipodi:nodetypes="ssccss" />
        <path
           style="fill:none;fill-opacity:1;stroke:#e51b23;stroke-width:1.92689204;stroke-opacity:1"
           d="m 36.736391,230.46107 c 4.101512,0 7.403459,2.89669 7.403459,6.49479 v 8.35848 c -14.806919,0 0,0 -14.806919,0 v -8.35848 c 0,-3.5981 3.301939,-6.49479 7.40346,-6.49479 z"
           id="rect928-7"
           inkscape:connector-curvature="0"
           sodipodi:nodetypes="ssccss" />
      </g>
    </g>
  </g>
</svg>
